<?xml version="1.0" encoding="UTF-8" standalone="no"?>
<!-- Created with Inkscape (http://www.inkscape.org/) -->

<svg
   xmlns:dc="http://purl.org/dc/elements/1.1/"
   xmlns:cc="http://creativecommons.org/ns#"
   xmlns:rdf="http://www.w3.org/1999/02/22-rdf-syntax-ns#"
   xmlns:svg="http://www.w3.org/2000/svg"
   xmlns="http://www.w3.org/2000/svg"
   xmlns:sodipodi="http://sodipodi.sourceforge.net/DTD/sodipodi-0.dtd"
   xmlns:inkscape="http://www.inkscape.org/namespaces/inkscape"
   width="210mm"
   height="297mm"
   viewBox="0 0 210 297"
   version="1.1"
   id="svg8"
   inkscape:version="0.92.0 r15299"
   sodipodi:docname="drawing.svg">
  <defs
     id="defs2">
    <inkscape:path-effect
       effect="powerstroke"
       id="path-effect28"
       is_visible="true"
       offset_points="0,0.13229166"
       sort_points="true"
       interpolator_type="CubicBezierJohan"
       interpolator_beta="0.2"
       start_linecap_type="zerowidth"
       linejoin_type="extrp_arc"
       miter_limit="4"
       end_linecap_type="zerowidth" />
    <inkscape:path-effect
       effect="skeletal"
       id="path-effect20"
       is_visible="true"
       pattern="M 0,5 C 0,2.24 2.24,0 5,0 7.76,0 10,2.24 10,5 10,7.76 7.76,10 5,10 2.24,10 0,7.76 0,5 Z"
       copytype="single_stretched"
       prop_scale="0.26458333"
       scale_y_rel="false"
       spacing="0"
       normal_offset="0"
       tang_offset="0"
       prop_units="false"
       vertical_pattern="false"
       fuse_tolerance="0" />
    <inkscape:path-effect
       effect="skeletal"
       id="path-effect16"
       is_visible="true"
       pattern="M 0,5 C 0,2.24 2.24,0 5,0 7.76,0 10,2.24 10,5 10,7.76 7.76,10 5,10 2.24,10 0,7.76 0,5 Z"
       copytype="single_stretched"
       prop_scale="0.26458333"
       scale_y_rel="false"
       spacing="0"
       normal_offset="0"
       tang_offset="0"
       prop_units="false"
       vertical_pattern="false"
       fuse_tolerance="0" />
    <inkscape:path-effect
       effect="skeletal"
       id="path-effect12"
       is_visible="true"
       pattern="M 0,5 C 0,2.24 2.24,0 5,0 7.76,0 10,2.24 10,5 10,7.76 7.76,10 5,10 2.24,10 0,7.76 0,5 Z"
       copytype="single_stretched"
       prop_scale="0.26458333"
       scale_y_rel="false"
       spacing="0"
       normal_offset="0"
       tang_offset="0"
       prop_units="false"
       vertical_pattern="false"
       fuse_tolerance="0" />
    <filter
       inkscape:menu-tooltip="Bright metallic effect for any color"
       inkscape:menu="Bevels"
       inkscape:label="Bright Metal"
       style="color-interpolation-filters:sRGB;"
       id="filter52">
      <feGaussianBlur
         result="result6"
         stdDeviation="8"
         in="SourceGraphic"
         id="feGaussianBlur32" />
      <feComposite
         in2="SourceGraphic"
         in="result6"
         operator="xor"
         result="result10"
         id="feComposite34" />
      <feGaussianBlur
         result="result2"
         stdDeviation="8"
         id="feGaussianBlur36" />
      <feComposite
         in2="SourceGraphic"
         operator="atop"
         in="result10"
         result="result91"
         id="feComposite38" />
      <feComposite
         result="result4"
         in="result2"
         operator="xor"
         in2="result91"
         id="feComposite40" />
      <feGaussianBlur
         in="result4"
         result="result3"
         stdDeviation="4"
         id="feGaussianBlur42" />
      <feSpecularLighting
         result="result5"
         specularExponent="5"
         specularConstant="1.1"
         surfaceScale="18"
         id="feSpecularLighting46">
        <feDistantLight
           azimuth="235"
           elevation="55"
           id="feDistantLight44" />
      </feSpecularLighting>
      <feComposite
         in="result3"
         k3="1.1"
         k2="0.5"
         operator="arithmetic"
         result="result7"
         in2="result5"
         k1="0.5"
         id="feComposite48" />
      <feComposite
         in="result7"
         operator="atop"
         in2="SourceGraphic"
         result="result8"
         id="feComposite50" />
    </filter>
  </defs>
  <sodipodi:namedview
     id="base"
     pagecolor="#ffffff"
     bordercolor="#666666"
     borderopacity="1.0"
     inkscape:pageopacity="0.0"
     inkscape:pageshadow="2"
     inkscape:zoom="0.35"
     inkscape:cx="400"
     inkscape:cy="560"
     inkscape:document-units="mm"
     inkscape:current-layer="layer1"
     showgrid="false"
     inkscape:window-width="1920"
     inkscape:window-height="1001"
     inkscape:window-x="-9"
     inkscape:window-y="-9"
     inkscape:window-maximized="1" />
  <metadata
     id="metadata5">
    <rdf:RDF>
      <cc:Work
         rdf:about="">
        <dc:format>image/svg+xml</dc:format>
        <dc:type
           rdf:resource="http://purl.org/dc/dcmitype/StillImage" />
        <dc:title></dc:title>
      </cc:Work>
    </rdf:RDF>
  </metadata>
  <g
     inkscape:label="Layer 1"
     inkscape:groupmode="layer"
     id="layer1">
    <path
       style="fill:#000000;stroke:none;stroke-width:0.26458332px;stroke-linecap:butt;stroke-linejoin:miter;stroke-opacity:1"
       d="m 273.65475,302.29167 c 0,0 0,0 0,0 0,0 0,0 0,0 0,0 0,0 0,0 0,0 0,0 0,0 z"
       id="path18"
       inkscape:connector-curvature="0"
       inkscape:path-effect="#path-effect20"
       inkscape:original-d="M 273.65475,302.29167 Z" />
    <path
       style="fill:#000000;fill-rule:nonzero;stroke:none;stroke-width:0.26458332px;stroke-linecap:butt;stroke-linejoin:miter;stroke-opacity:1"
       d="m 287.1358,-514.17692 c -36.28571,114.3 -145.14285,457.199989 -181.42856,571.499986 z M 105.95942,57.403124 C 142.24513,-56.896873 251.10227,-399.79686 287.38798,-514.09686 Z"
       id="path26"
       inkscape:connector-curvature="0"
       inkscape:path-effect="#path-effect28"
       inkscape:original-d="M 105.83333,57.363095 45.357142,247.86309 161.01786,248.61904 Z" />
    <path
       transform="matrix(1.1539093,0,0,1.1693003,-22.549024,-32.098408)"
       style="fill:#008000;stroke-width:0.26458332"
       inkscape:transform-center-x="3.8458953e-006"
       inkscape:transform-center-y="6.780053e-006"
       d="m 144.88672,87.294922 c -14.4219,0.720055 -27.15779,9.700616 -41.73242,9.386719 C 89.684619,95.865889 77.468452,88.161566 63.818359,88.712891 50.828177,89.742224 40.411943,102.38796 41.01897,115.24503 c -2.91573,23.72614 0.807003,45.99993 12.769886,60.51684 3.151048,5.45275 7.244073,13.4413 13.330285,15.44516 15.463788,2.91379 19.937198,-2.04031 29.922532,-1.26017 11.779707,0.66354 15.888147,6.92026 40.092517,4.08544 6.45018,-1.51548 11.50556,-7.44747 15.36965,-12.80133 5.7772,-7.78398 8.5053,-15.52903 10.72089,-24.77239 2.63282,-12.26407 3.83728,-24.86143 3.41534,-37.39944 -0.64299,-9.10655 -2.66089,-18.65701 -8.63812,-25.84039 -3.39188,-3.539292 -8.12368,-6.047726 -13.11523,-5.923828 z M 44.613281,96.560547 c 0.249387,-0.0529 0.266656,-0.05656 0,0 z m -0.259765,0.150391 0.07617,-0.04688 z m -0.01563,0.318359 -0.01172,-0.08789 z m 0.04102,0.279297 c 0.273761,-0.102178 0.466376,-0.17407 0,0 z m -0.482422,0.396484 0.0293,-0.0059 z m -0.115234,0.416016 0.07422,-0.02734 z M 43.105469,99 l 0.03516,-0.0293 z m 0.472656,0.53125 c 0.187309,-0.177046 0.194943,-0.184261 0,0 z m -0.708984,0.49219 0.03125,-0.0918 z m -0.199219,1.27929 c 0.232324,-0.15488 0.160744,-0.10716 0,0 z m 0.214844,0.22071 c 0.187309,-0.17705 0.194942,-0.18426 0,0 z m -0.158204,0.33789 0.06445,-0.0605 z m -0.09766,0.45117 c 0.149272,-0.20746 0.158608,-0.22044 0,0 z m -0.523437,1.02734 c 0.242914,-0.13529 0.170724,-0.0951 0,0 z m 0.318359,0.31641 c 0.184171,-0.1766 0.196493,-0.18842 0,0 z m 0.1875,0.0566 0.06641,-0.0293 z m -0.125,0.49805 0.01563,-0.0254 z m -0.796875,1.1582 c -0.125544,0.12224 0.05929,0.0136 0,0 z m 0.498047,0.10156 0.0039,-0.0449 z m -0.605469,0.69532 0.06055,-0.041 z m 0.552735,0.25781 -0.0078,-0.006 z m -0.234375,0.52148 c 0.139802,-0.22045 0.129391,-0.20404 0,0 z m -0.357422,1.15821 c 0.156193,-0.0764 0.0781,-0.0382 0,0 z m -0.330078,0.64257 c 0.004,0.0427 0.04598,-0.0162 0,0 z m -0.673829,3.04102 0.01367,-0.041 z m 0.353516,0.5625 0.07813,-0.0352 z m -0.183594,0.93359 0.05273,-0.0566 z m -0.193359,0.73828 0.01367,-0.0644 z m -0.757813,0.72461 c -0.08588,0.27847 0.05736,-0.0646 0,0 z m 0.587891,0.85743 c 0.143756,-0.0958 0.07287,-0.0486 0,0 z m 0.08203,0.97656 c 0.192683,-0.16939 0.279323,-0.24556 0,0 z"
       id="path54"
       inkscape:connector-curvature="0"
       sodipodi:nodetypes="ccccccccccccccccccccccccccccccccccccccccccccccccccccccccccccccccccccccccccscccccccccccccccc" />
    <path
       style="fill:#008000;stroke-width:0.26458332"
       d="m 93.318638,92.473773 v 0 L 102.45898,44.851562 83.580078,41.1875 Z"
       id="rect151"
       inkscape:connector-curvature="0"
       sodipodi:nodetypes="ccccc" />
    <path
       style="fill:#f2f2f2;stroke-width:0.18000415"
       id="path159"
       d="m 133.12258,92.222564 c -1.79333,0.463972 -4.43574,1.752757 -4.08145,3.85692 4.62531,1.60451 9.44746,5.201286 9.70411,10.499266 0.32163,2.68095 -0.37541,5.54666 0.81094,8.07936 2.91013,-1.17651 5.48318,-4.07679 5.05468,-7.40234 -0.27806,-4.46747 -1.48307,-9.23337 -5.10869,-12.186103 -1.7927,-1.449529 -4.05799,-2.670645 -6.37959,-2.847103 z"
       inkscape:connector-curvature="0" />
    <path
       style="fill:#008000;stroke-width:0.26458332"
       id="path161"
       d="m 100.37557,74.805875 c 0.81737,-2.332368 -0.56112,2.399165 0,0 0.24804,-1.612069 2.80458,-10.159666 3.52738,-11.593266 0.65661,-1.343875 1.44374,-2.620124 2.32426,-3.827931 2.26242,-2.441559 5.30473,-3.626458 8.26679,-5.280409 0.34552,-0.192931 0.75297,-0.254642 1.10284,-0.439586 1.13884,-0.351356 2.2348,-0.812909 3.38145,-1.143006 1.34962,-0.31697 2.74219,-0.347453 4.12156,-0.379407 1.48573,0.03959 2.99609,-0.15581 4.46242,0.118663 1.21031,0.427501 2.33147,0.34408 3.56371,0.161084 -1.42536,0.979083 2.90401,-1.529451 1.49598,-0.733428 -9.91373,5.604685 -7.06592,4.355788 -4.96764,2.602476 0.80312,-0.858004 1.24786,-1.982337 1.72357,-3.04189 0.63581,-1.078466 0.85926,-2.27556 0.99099,-3.501459 0.1432,-1.452317 0.039,-2.914719 0.17221,-4.365892 0.64742,-2.907673 4.85563,-6.545758 7.53631,-4.899052 0.28185,0.173138 0.49533,0.438624 0.74784,0.652288 1.10012,0.84442 1.42755,2.137881 1.90088,3.363833 0.55572,1.268518 0.75221,2.629022 0.87012,3.996174 0.0961,1.494176 0.0896,2.992443 0.0902,4.488977 -0.002,1.513784 -0.006,3.027566 -0.008,4.541353 -0.002,1.512273 -0.002,3.02455 -0.002,4.536826 0.0326,1.434161 0.0615,2.847475 -0.3628,4.228991 -1.3977,3.38717 -5.37987,4.158901 -8.32027,6.058615 -1.89902,1.226907 3.92003,-2.253814 5.88005,-3.380719 -2.32059,1.339101 -4.66849,2.631956 -6.96177,4.017304 -1.94785,1.176678 3.94174,-2.275586 5.92522,-3.391138 0.17024,-0.09574 -0.31477,0.232642 -0.48368,0.330708 -3.67378,2.132965 -4.96711,3.645013 -8.17465,4.28876 -2.76585,0.380297 -8.8051,4.448839 3.19316,-2.390534 -4.0508,2.745015 -14.04461,7.9756 -1.37112,0.899263 0.29438,-0.164369 -0.50952,0.445905 -0.72542,0.704869 l -6.87372,3.026031 v 0 c 1.41454,-2.891268 4.16792,-2.975887 7.47189,-5.024503 1.79322,-1.11188 -8.43932,5.127334 -5.48521,3.159067 3.50531,-2.067883 5.98323,-4.237316 9.74589,-4.937414 2.49154,-0.809831 5.77173,-3.109428 -4.77433,3.003323 -0.16776,0.09724 0.32683,-0.208905 0.49364,-0.307782 2.29685,-1.361519 4.65409,-2.624982 6.8972,-4.073327 1.90147,-1.227751 -3.91421,2.273951 -5.87131,3.410927 2.31552,-1.350706 4.60039,-2.755413 6.94658,-4.052118 1.97562,-1.091888 -3.8836,2.302005 -5.83449,3.43748 -0.72159,0.419992 2.44494,-1.675035 1.50738,-1.629807 0.64947,-1.233977 0.50569,-2.62224 0.50269,-3.976944 9e-5,-1.512528 1.8e-4,-3.025055 0.002,-4.537583 0.002,-1.513546 0.005,-3.02709 0.008,-4.540633 0.001,-1.478217 0.01,-2.957645 -0.0667,-4.434391 -0.0931,-1.297823 -0.2434,-2.595038 -0.77112,-3.800168 -0.43536,-1.107045 -0.66584,-2.290828 -1.71649,-3.011892 -0.0861,-0.06339 -0.30357,-0.305279 -0.48198,-0.244361 -0.0804,0.02744 -0.2814,0.189973 -0.20864,0.14619 12.31011,-7.407796 6.67665,-5.103251 5.50189,-2.972647 -0.26489,1.425075 -0.0351,2.896582 -0.18846,4.33777 -0.0996,1.288669 -0.23344,2.597319 -0.85876,3.754877 -0.61102,1.049753 -0.93773,2.259687 -1.62755,3.273054 -2.45679,2.685574 -5.96798,4.564031 -9.48369,5.478897 -1.25717,0.139202 -2.44524,-0.03716 -3.67407,-0.327041 -1.45681,-0.120918 -2.92408,-0.02812 -4.38413,-0.01881 -1.34866,0.05612 -2.71315,0.126129 -4.00525,0.553752 -1.11228,0.397232 -2.25226,0.720185 -3.3244,1.218826 -2.43366,1.00048 -5.57164,3.04922 4.82571,-2.984121 1.72556,-1.001308 -3.09394,1.971826 -1.42212,1.087416 -0.98174,1.087943 -1.68543,2.393839 -2.39827,3.666966 -0.64692,1.437037 -1.55872,2.712948 -1.74542,4.332301 -0.64147,2.364081 -0.98312,4.810223 -1.86476,7.1129 l -3.43166,6.288918 z"
       inkscape:connector-curvature="0"
       sodipodi:nodetypes="ccccscccccsccccccccccccscsccccscccsccccscccccccccccccccccccccccccccc" />
    <path
       style="fill:#008000;stroke-width:0.26458332"
       id="path163"
       d="m 103.6855,77.843495 c 1.70107,-1.736145 3.26215,-3.596684 4.78533,-5.488267 0.78558,-1.294787 1.76216,-2.410249 2.85646,-3.446738 2.66368,-2.498474 6.08105,-3.957455 9.23323,-5.7491 0.19729,-0.05244 0.40115,-0.08453 0.59187,-0.157326 0.17622,-0.06725 0.33495,-0.173546 0.50243,-0.260318 0.17768,-0.07328 0.35191,-0.155525 0.53303,-0.219829 0.58412,-0.207389 1.14671,-0.284314 1.71248,-0.545875 1.05764,-0.423141 2.18855,-0.772018 3.15436,-1.385568 2.55667,-1.27695 0.66629,-0.344387 -5.47671,3.161435 0,0 6.98724,-2.755008 6.98724,-2.755008 v 0 c -7.02781,4.132762 -4.51433,2.80629 -7.36343,4.298116 -1.06121,0.462024 -2.11068,0.944126 -3.21025,1.311505 -1.12697,0.344906 -2.22253,0.756796 -3.30057,1.234811 11.54636,-6.734162 5.64223,-3.706373 3.588,-1.751632 -1.17669,0.916496 -2.21014,2.015268 -2.9413,3.326276 -1.48396,1.918739 -3.0633,3.775064 -4.7595,5.510291 0,0 -6.89267,2.917227 -6.89267,2.917227 z"
       inkscape:connector-curvature="0" />
  </g>
</svg>
